# xmcd
#
# Track frame offsets: 
#        150
#        19942
#        39964
#        60985
#        89802
#        107807
#        126687
#        160405
#        194342
#        209480
#        236445
#        252792
#        273542
#        283277
#        294330
#        308107
#
# Disc length: 4283 seconds
#
# Revision: 3
# Processed by: cddbd v1.5.2PL0 Copyright (c) Steve Scherf et al.
# Submitted via: ExactAudioCopy v0.99pb5
#
DISCID=f510b910
DTITLE=Otis Spann with Muddy Waters and His Band - Live The Life
DYEAR=1997
DGENRE=Blues
TTITLE0=Been A Long, Long Time
TTITLE1=Look Under My Bed
TTITLE2=Tribute To Martin Luther King
TTITLE3=Sarah Street
TTITLE4=Worried Life Blues
TTITLE5=Kansas City
TTITLE6=Tin Pan Alley
TTITLE7=5 Long Years
TTITLE8=Live The Life I Love
TTITLE9=I Wanna Go Home
TTITLE10=Can't Lose What You Ain't Never Had
TTITLE11=High Rising
TTITLE12=Everything's Gonna Be Alright
TTITLE13=What's On  Your Worried Mind
TTITLE14=Mean Old Train
TTITLE15=My Baby Left Me
EXTD=
EXTT0=
EXTT1=
EXTT2=
EXTT3=
EXTT4=
EXTT5=
EXTT6=
EXTT7=
EXTT8=
EXTT9=
EXTT10=
EXTT11=
EXTT12=
EXTT13=
EXTT14=
EXTT15=
PLAYORDER=
